<?xml version="1.0" encoding="utf-8"?>
<!-- Generator: Adobe Illustrator 17.1.0, SVG Export Plug-In . SVG Version: 6.00 Build 0)  -->
<!DOCTYPE svg PUBLIC "-//W3C//DTD SVG 1.1//EN" "http://www.w3.org/Graphics/SVG/1.1/DTD/svg11.dtd">
<svg version="1.1" id="Layer_1" xmlns="http://www.w3.org/2000/svg" xmlns:xlink="http://www.w3.org/1999/xlink" x="0px" y="0px"
	 viewBox="0 0 130 130" enable-background="new 0 0 130 130" xml:space="preserve">
<path fill="#f16665" d="M72.948,68.274c-1.795,0-3.251,2.013-3.251,4.498c0,2.485,1.456,4.499,3.251,4.499
	c1.794,0,3.249-2.014,3.249-4.499C76.197,70.287,74.742,68.274,72.948,68.274z M84.264,56.566c0.37-0.913,0.389-6.101-1.585-11.066
	c0,0-4.528,0.497-11.38,5.198c-1.437-0.396-3.868-0.595-6.299-0.595c-2.431,0-4.861,0.198-6.299,0.595
	C51.85,45.997,47.322,45.5,47.322,45.5c-1.974,4.965-1.956,10.153-1.586,11.066C43.417,59.084,42,62.109,42,66.242
	c0,17.966,14.904,18.254,18.667,18.254c0.851,0,2.544,0.002,4.333,0.004c1.789-0.002,3.482-0.004,4.333-0.004
	C73.096,84.496,88,84.208,88,66.242C88,62.109,86.583,59.084,84.264,56.566z M65.07,82.287H64.93c-9.43,0-16.772-1.126-16.772-10.29
	c0-2.194,0.774-4.232,2.614-5.923c3.07-2.818,8.264-1.326,14.158-1.326c0.022,0,0.047,0,0.07-0.001
	c0.024,0.001,0.048,0.001,0.07,0.001c5.895,0,11.089-1.492,14.158,1.326c1.84,1.691,2.614,3.729,2.614,5.923
	C81.843,81.161,74.5,82.287,65.07,82.287z M57.052,68.274c-1.794,0-3.249,2.013-3.249,4.498c0,2.485,1.455,4.499,3.249,4.499
	c1.796,0,3.251-2.014,3.251-4.499C60.303,70.287,58.848,68.274,57.052,68.274z"/>
</svg>
